<svg xmlns="http://www.w3.org/2000/svg" width="960" height="790" viewBox="0 0 960 790" font-family="-apple-system, Segoe UI, Helvetica, Arial, sans-serif"><rect width="960" height="790" fill="#ffffff"/><text x="64.0" y="28.0" font-size="16" fill="#1f2933" text-anchor="start" font-weight="600">Avant : 11 changements de cran en 80 secondes</text><text x="64.0" y="48.0" font-size="13" fill="#5b6670" text-anchor="start" font-weight="400">Il remontait sur une seule seconde rapide (89 images/s), puis devait redescendre ; un essai raté au début (35 images/s).</text><text x="64.0" y="74.0" font-size="12" fill="#1f2933" text-anchor="start" font-weight="600">Images par seconde</text><line x1="64" x2="936" y1="226.0" y2="226.0" stroke="#e6e9ec" stroke-width="1"/><text x="56.0" y="230.0" font-size="11" fill="#5b6670" text-anchor="end" font-weight="400">0</text><line x1="64" x2="936" y1="191.0" y2="191.0" stroke="#e6e9ec" stroke-width="1"/><text x="56.0" y="195.0" font-size="11" fill="#5b6670" text-anchor="end" font-weight="400">30</text><line x1="64" x2="936" y1="156.0" y2="156.0" stroke="#e6e9ec" stroke-width="1"/><text x="56.0" y="160.0" font-size="11" fill="#5b6670" text-anchor="end" font-weight="400">60</text><line x1="64" x2="936" y1="121.0" y2="121.0" stroke="#e6e9ec" stroke-width="1"/><text x="56.0" y="125.0" font-size="11" fill="#5b6670" text-anchor="end" font-weight="400">90</text><line x1="64" x2="936" y1="86.0" y2="86.0" stroke="#e6e9ec" stroke-width="1"/><text x="56.0" y="90.0" font-size="11" fill="#5b6670" text-anchor="end" font-weight="400">120</text><line x1="64" x2="936" y1="156.0" y2="156.0" stroke="#9aa3ab" stroke-width="1" stroke-dasharray="4 4"/><line x1="64" x2="936" y1="163.0" y2="163.0" stroke="#9aa3ab" stroke-width="1" stroke-dasharray="4 4"/><text x="932.0" y="150.0" font-size="11" fill="#5b6670" text-anchor="end" font-weight="400">le but : 60</text><text x="932.0" y="177.0" font-size="11" fill="#5b6670" text-anchor="end" font-weight="400">trop lent : sous 54</text><polyline points="120.4,144.3 131.0,135.0 141.6,152.5 152.3,139.7 162.9,175.8 173.5,185.2 184.2,177.0 195.9,170.0 206.5,165.3 217.1,158.3 227.8,135.0 238.4,154.8 249.0,164.2 259.7,159.5 270.3,163.0 282.0,163.0 292.6,170.0 303.3,161.8 313.9,161.8 324.5,164.2 335.2,164.2 345.8,164.2 356.4,159.5 367.1,157.2 378.8,159.5 389.4,153.7 400.0,96.5 410.7,163.0 421.3,165.3 431.9,154.8 442.6,145.5 453.2,146.7 463.8,146.7 474.5,150.2 485.1,149.0 495.7,147.8 507.4,149.0 518.1,156.0 528.7,154.8 539.3,122.2 550.0,157.2 560.6,151.3 571.2,147.8 581.9,151.3 592.5,150.2 604.2,152.5 614.8,145.5 625.5,146.7 636.1,150.2 646.8,136.2 657.4,111.7 668.0,163.0 678.7,158.3 689.3,139.7 699.9,121.0 710.6,140.8 722.3,154.8 732.9,157.2 743.5,152.5 754.2,146.7 764.8,153.7 775.4,152.5 786.1,154.8 796.7,152.5 807.3,160.7 819.0,160.7 829.7,158.3 840.3,156.0 850.9,156.0 861.6,165.3 872.2,166.5 882.8,153.7 893.5,163.0 904.1,156.0 914.7,150.2" fill="none" stroke="#2f6fb3" stroke-width="2" stroke-linejoin="round"/><text x="64.0" y="258.0" font-size="12" fill="#1f2933" text-anchor="start" font-weight="600">Cran choisi</text><text x="148.0" y="258.0" font-size="11" fill="#5b6670" text-anchor="start" font-weight="400">(0 = Haute, 2 = Économique, 4 = Économique à 70 %, 7 = Minimale à 50 %)</text><line x1="64" x2="936" y1="272.0" y2="272.0" stroke="#e6e9ec" stroke-width="1"/><text x="56.0" y="276.0" font-size="11" fill="#5b6670" text-anchor="end" font-weight="400">0</text><line x1="64" x2="936" y1="294.9" y2="294.9" stroke="#e6e9ec" stroke-width="1"/><text x="56.0" y="298.9" font-size="11" fill="#5b6670" text-anchor="end" font-weight="400">2</text><line x1="64" x2="936" y1="317.7" y2="317.7" stroke="#e6e9ec" stroke-width="1"/><text x="56.0" y="321.7" font-size="11" fill="#5b6670" text-anchor="end" font-weight="400">4</text><line x1="64" x2="936" y1="340.6" y2="340.6" stroke="#e6e9ec" stroke-width="1"/><text x="56.0" y="344.6" font-size="11" fill="#5b6670" text-anchor="end" font-weight="400">6</text><path d="M120.4,294.9 H131.0 V294.9 H141.6 V294.9 H152.3 V283.4 H162.9 V283.4 H173.5 V283.4 H184.2 V294.9 H195.9 V294.9 H206.5 V294.9 H217.1 V306.3 H227.8 V306.3 H238.4 V306.3 H249.0 V306.3 H259.7 V306.3 H270.3 V306.3 H282.0 V306.3 H292.6 V306.3 H303.3 V317.7 H313.9 V317.7 H324.5 V329.1 H335.2 V329.1 H345.8 V329.1 H356.4 V329.1 H367.1 V329.1 H378.8 V329.1 H389.4 V329.1 H400.0 V329.1 H410.7 V329.1 H421.3 V329.1 H431.9 V340.6 H442.6 V340.6 H453.2 V340.6 H463.8 V340.6 H474.5 V340.6 H485.1 V340.6 H495.7 V340.6 H507.4 V340.6 H518.1 V340.6 H528.7 V340.6 H539.3 V329.1 H550.0 V329.1 H560.6 V329.1 H571.2 V329.1 H581.9 V329.1 H592.5 V329.1 H604.2 V329.1 H614.8 V329.1 H625.5 V329.1 H636.1 V329.1 H646.8 V329.1 H657.4 V317.7 H668.0 V317.7 H678.7 V317.7 H689.3 V317.7 H699.9 V317.7 H710.6 V317.7 H722.3 V317.7 H732.9 V317.7 H743.5 V317.7 H754.2 V317.7 H764.8 V317.7 H775.4 V317.7 H786.1 V317.7 H796.7 V317.7 H807.3 V317.7 H819.0 V317.7 H829.7 V317.7 H840.3 V317.7 H850.9 V317.7 H861.6 V317.7 H872.2 V329.1 H882.8 V329.1 H893.5 V329.1 H904.1 V340.6 H914.7 V340.6" fill="none" stroke="#b8770f" stroke-width="2" stroke-linejoin="round"/><text x="64.0" y="372.0" font-size="11" fill="#5b6670" text-anchor="middle" font-weight="400">0 s</text><text x="170.3" y="372.0" font-size="11" fill="#5b6670" text-anchor="middle" font-weight="400">10 s</text><text x="276.7" y="372.0" font-size="11" fill="#5b6670" text-anchor="middle" font-weight="400">20 s</text><text x="383.0" y="372.0" font-size="11" fill="#5b6670" text-anchor="middle" font-weight="400">30 s</text><text x="489.4" y="372.0" font-size="11" fill="#5b6670" text-anchor="middle" font-weight="400">40 s</text><text x="595.7" y="372.0" font-size="11" fill="#5b6670" text-anchor="middle" font-weight="400">50 s</text><text x="702.0" y="372.0" font-size="11" fill="#5b6670" text-anchor="middle" font-weight="400">60 s</text><text x="808.4" y="372.0" font-size="11" fill="#5b6670" text-anchor="middle" font-weight="400">70 s</text><text x="914.7" y="372.0" font-size="11" fill="#5b6670" text-anchor="middle" font-weight="400">80 s</text><text x="64.0" y="418.0" font-size="16" fill="#1f2933" text-anchor="start" font-weight="600">Après : 4 changements, aucun essai raté</text><text x="64.0" y="438.0" font-size="13" fill="#5b6670" text-anchor="start" font-weight="400">Il ne remonte que si la plus lente de ses secondes à l’aise tiendrait au cran du dessus.</text><text x="64.0" y="464.0" font-size="12" fill="#1f2933" text-anchor="start" font-weight="600">Images par seconde</text><line x1="64" x2="936" y1="616.0" y2="616.0" stroke="#e6e9ec" stroke-width="1"/><text x="56.0" y="620.0" font-size="11" fill="#5b6670" text-anchor="end" font-weight="400">0</text><line x1="64" x2="936" y1="581.0" y2="581.0" stroke="#e6e9ec" stroke-width="1"/><text x="56.0" y="585.0" font-size="11" fill="#5b6670" text-anchor="end" font-weight="400">30</text><line x1="64" x2="936" y1="546.0" y2="546.0" stroke="#e6e9ec" stroke-width="1"/><text x="56.0" y="550.0" font-size="11" fill="#5b6670" text-anchor="end" font-weight="400">60</text><line x1="64" x2="936" y1="511.0" y2="511.0" stroke="#e6e9ec" stroke-width="1"/><text x="56.0" y="515.0" font-size="11" fill="#5b6670" text-anchor="end" font-weight="400">90</text><line x1="64" x2="936" y1="476.0" y2="476.0" stroke="#e6e9ec" stroke-width="1"/><text x="56.0" y="480.0" font-size="11" fill="#5b6670" text-anchor="end" font-weight="400">120</text><line x1="64" x2="936" y1="546.0" y2="546.0" stroke="#9aa3ab" stroke-width="1" stroke-dasharray="4 4"/><line x1="64" x2="936" y1="553.0" y2="553.0" stroke="#9aa3ab" stroke-width="1" stroke-dasharray="4 4"/><text x="932.0" y="540.0" font-size="11" fill="#5b6670" text-anchor="end" font-weight="400">le but : 60</text><text x="932.0" y="567.0" font-size="11" fill="#5b6670" text-anchor="end" font-weight="400">trop lent : sous 54</text><polyline points="83.1,560.0 93.8,562.3 104.4,563.5 115.0,535.5 125.7,535.5 136.3,541.3 146.9,546.0 157.6,546.0 168.2,550.7 178.8,553.0 190.5,556.5 201.2,521.5 211.8,533.2 222.4,542.5 233.1,544.8 243.7,549.5 255.4,548.3 266.0,533.2 276.7,536.7 287.3,562.3 298.0,558.8 308.6,550.7 319.2,549.5 329.9,549.5 340.5,497.0 351.1,504.0 361.8,523.8 372.4,542.5 383.0,544.8 394.7,539.0 405.4,544.8 416.0,547.2 426.6,544.8 437.3,540.2 447.9,536.7 458.5,539.0 470.2,544.8 480.9,546.0 491.5,549.5 502.1,548.3 512.8,547.2 523.4,546.0 534.0,544.8 544.7,536.7 556.4,549.5 567.0,549.5 577.6,550.7 588.3,523.8 598.9,532.0 609.5,540.2 620.2,543.7 630.8,542.5 642.5,540.2 653.1,512.2 663.8,528.5 674.4,550.7 685.0,553.0 695.7,554.2 706.3,554.2 716.9,542.5 728.6,542.5 739.3,541.3 749.9,522.7 760.5,479.5 771.2,507.5 781.8,529.7 792.4,537.8 803.1,533.2 813.7,529.7 825.4,542.5 836.0,544.8 846.7,546.0 857.3,548.3 867.9,543.7 878.6,551.8 889.2,542.5 899.8,542.5 910.5,539.0 921.1,542.5 931.7,553.0" fill="none" stroke="#2f6fb3" stroke-width="2" stroke-linejoin="round"/><text x="64.0" y="648.0" font-size="12" fill="#1f2933" text-anchor="start" font-weight="600">Cran choisi</text><text x="148.0" y="648.0" font-size="11" fill="#5b6670" text-anchor="start" font-weight="400">(0 = Haute, 2 = Économique, 4 = Économique à 70 %, 7 = Minimale à 50 %)</text><line x1="64" x2="936" y1="662.0" y2="662.0" stroke="#e6e9ec" stroke-width="1"/><text x="56.0" y="666.0" font-size="11" fill="#5b6670" text-anchor="end" font-weight="400">0</text><line x1="64" x2="936" y1="684.9" y2="684.9" stroke="#e6e9ec" stroke-width="1"/><text x="56.0" y="688.9" font-size="11" fill="#5b6670" text-anchor="end" font-weight="400">2</text><line x1="64" x2="936" y1="707.7" y2="707.7" stroke="#e6e9ec" stroke-width="1"/><text x="56.0" y="711.7" font-size="11" fill="#5b6670" text-anchor="end" font-weight="400">4</text><line x1="64" x2="936" y1="730.6" y2="730.6" stroke="#e6e9ec" stroke-width="1"/><text x="56.0" y="734.6" font-size="11" fill="#5b6670" text-anchor="end" font-weight="400">6</text><path d="M83.1,673.4 H93.8 V673.4 H104.4 V684.9 H115.0 V684.9 H125.7 V684.9 H136.3 V684.9 H146.9 V684.9 H157.6 V684.9 H168.2 V684.9 H178.8 V684.9 H190.5 V684.9 H201.2 V696.3 H211.8 V696.3 H222.4 V696.3 H233.1 V696.3 H243.7 V696.3 H255.4 V696.3 H266.0 V696.3 H276.7 V696.3 H287.3 V696.3 H298.0 V707.7 H308.6 V707.7 H319.2 V707.7 H329.9 V707.7 H340.5 V707.7 H351.1 V707.7 H361.8 V707.7 H372.4 V707.7 H383.0 V707.7 H394.7 V707.7 H405.4 V707.7 H416.0 V707.7 H426.6 V707.7 H437.3 V707.7 H447.9 V707.7 H458.5 V707.7 H470.2 V707.7 H480.9 V707.7 H491.5 V707.7 H502.1 V707.7 H512.8 V707.7 H523.4 V707.7 H534.0 V707.7 H544.7 V707.7 H556.4 V707.7 H567.0 V707.7 H577.6 V707.7 H588.3 V707.7 H598.9 V707.7 H609.5 V707.7 H620.2 V707.7 H630.8 V707.7 H642.5 V707.7 H653.1 V707.7 H663.8 V707.7 H674.4 V707.7 H685.0 V707.7 H695.7 V707.7 H706.3 V719.1 H716.9 V719.1 H728.6 V719.1 H739.3 V719.1 H749.9 V719.1 H760.5 V719.1 H771.2 V719.1 H781.8 V719.1 H792.4 V719.1 H803.1 V719.1 H813.7 V719.1 H825.4 V719.1 H836.0 V719.1 H846.7 V719.1 H857.3 V719.1 H867.9 V719.1 H878.6 V719.1 H889.2 V719.1 H899.8 V719.1 H910.5 V719.1 H921.1 V719.1 H931.7 V719.1" fill="none" stroke="#b8770f" stroke-width="2" stroke-linejoin="round"/><text x="64.0" y="762.0" font-size="11" fill="#5b6670" text-anchor="middle" font-weight="400">0 s</text><text x="170.3" y="762.0" font-size="11" fill="#5b6670" text-anchor="middle" font-weight="400">10 s</text><text x="276.7" y="762.0" font-size="11" fill="#5b6670" text-anchor="middle" font-weight="400">20 s</text><text x="383.0" y="762.0" font-size="11" fill="#5b6670" text-anchor="middle" font-weight="400">30 s</text><text x="489.4" y="762.0" font-size="11" fill="#5b6670" text-anchor="middle" font-weight="400">40 s</text><text x="595.7" y="762.0" font-size="11" fill="#5b6670" text-anchor="middle" font-weight="400">50 s</text><text x="702.0" y="762.0" font-size="11" fill="#5b6670" text-anchor="middle" font-weight="400">60 s</text><text x="808.4" y="762.0" font-size="11" fill="#5b6670" text-anchor="middle" font-weight="400">70 s</text><text x="914.7" y="762.0" font-size="11" fill="#5b6670" text-anchor="middle" font-weight="400">80 s</text></svg>